<svg width="1920" height="1080" viewBox="0 0 1920 1080" fill="none" xmlns="http://www.w3.org/2000/svg">
<g clip-path="url(#clip0_196_2)">
<path fill-rule="evenodd" clip-rule="evenodd" d="M377.851 565.437L4.13088 941.537C-21.8592 967.693 -26.4139 1005.31 -6.04225 1025.55C14.3294 1045.79 51.9129 1041 77.903 1014.84L451.623 638.743C477.613 612.587 482.168 574.974 461.796 554.731C441.424 534.488 403.841 539.282 377.851 565.437ZM0.584137 938.013C-27.905 966.684 -32.8976 1007.91 -10.5672 1030.1C11.7633 1052.29 52.9606 1047.04 81.4498 1018.37L455.17 642.267C483.659 613.596 488.651 572.366 466.321 550.177C443.991 527.988 402.793 533.242 374.304 561.913L0.584137 938.013Z" fill="#8492A2" fill-opacity="0.1"/>
<path fill-rule="evenodd" clip-rule="evenodd" d="M415.491 766.163L92.1738 1091.54C69.689 1114.17 67.9759 1148.92 88.3475 1169.16C108.719 1189.41 143.461 1187.47 165.946 1164.84L489.263 839.468C511.748 816.84 513.461 782.086 493.089 761.844C472.717 741.601 437.975 743.535 415.491 766.163ZM88.627 1088.01C63.9802 1112.82 62.1024 1150.91 84.4328 1173.1C106.763 1195.29 144.846 1193.17 169.493 1168.37L492.809 842.992C517.456 818.189 519.334 780.093 497.004 757.904C474.673 735.715 436.591 737.835 411.944 762.639L88.627 1088.01Z" fill="#8492A2" fill-opacity="0.2"/>
<line x1="2374.77" y1="-610.232" x2="1240.77" y2="523.768" stroke="#8492A2" stroke-opacity="0.2" stroke-width="5"/>
<path fill-rule="evenodd" clip-rule="evenodd" d="M1753.9 250.842L2127.62 -125.258C2153.61 -151.414 2158.17 -189.027 2137.8 -209.27C2117.42 -229.512 2079.84 -224.719 2053.85 -198.563L1680.13 177.537C1654.14 203.692 1649.59 241.306 1669.96 261.548C1690.33 281.791 1727.91 276.998 1753.9 250.842ZM2131.17 -121.734C2159.66 -150.404 2164.65 -191.634 2142.32 -213.823C2119.99 -236.013 2078.79 -230.758 2050.3 -202.088L1676.58 174.012C1648.1 202.683 1643.1 243.913 1665.43 266.102C1687.76 288.291 1728.96 283.037 1757.45 254.366L2131.17 -121.734Z" fill="#8492A2" fill-opacity="0.1"/>
<path fill-rule="evenodd" clip-rule="evenodd" d="M619.249 834.832L272.419 1183.87C248.299 1208.14 245.261 1244.23 265.632 1264.47C286.004 1284.72 322.071 1281.45 346.191 1257.18L693.021 908.137C717.141 883.863 720.18 847.776 699.808 827.533C679.437 807.29 643.369 810.558 619.249 834.832ZM268.873 1180.35C242.433 1206.95 239.102 1246.51 261.433 1268.7C283.763 1290.89 323.299 1287.31 349.738 1260.7L696.568 911.661C723.007 885.053 726.338 845.496 704.008 823.307C681.677 801.118 642.142 804.7 615.702 831.307L268.873 1180.35Z" fill="#8492A2" fill-opacity="0.05"/>
<path fill-rule="evenodd" clip-rule="evenodd" d="M1388.75 220.297L1735.58 -128.741C1759.7 -153.015 1762.74 -189.103 1742.37 -209.345C1722 -229.588 1685.93 -226.32 1661.81 -202.047L1314.98 146.992C1290.86 171.266 1287.82 207.353 1308.19 227.596C1328.56 247.839 1364.63 244.571 1388.75 220.297ZM1739.13 -125.217C1765.57 -151.825 1768.9 -191.382 1746.57 -213.571C1724.24 -235.761 1684.7 -232.179 1658.26 -205.571L1311.43 143.468C1284.99 170.075 1281.66 209.633 1303.99 231.822C1326.32 254.011 1365.86 250.429 1392.3 223.822L1739.13 -125.217Z" fill="#8492A2" fill-opacity="0.05"/>
<line x1="-780.768" y1="1649.36" x2="353.232" y2="515.361" stroke="#8492A2" stroke-opacity="0.5" stroke-width="5"/>
<line x1="2793.77" y1="-622.232" x2="1659.77" y2="511.768" stroke="#8492A2" stroke-opacity="0.3" stroke-width="5"/>
<line x1="-520.768" y1="1915.36" x2="613.232" y2="781.361" stroke="#8492A2" stroke-opacity="0.05" stroke-width="5"/>
<line x1="2528.77" y1="-860.232" x2="1394.77" y2="273.768" stroke="#8492A2" stroke-opacity="0.05" stroke-width="5"/>
<line x1="2821.77" y1="-736.232" x2="1687.77" y2="397.768" stroke="#8492A2" stroke-opacity="0.05" stroke-width="5"/>
<line x1="-356.768" y1="2004.36" x2="777.232" y2="870.361" stroke="#8492A2" stroke-opacity="0.2" stroke-width="5"/>
<line x1="2364.77" y1="-949.232" x2="1230.77" y2="184.768" stroke="#8492A2" stroke-opacity="0.2" stroke-width="5"/>
</g>
<defs>
<clipPath id="clip0_196_2">
<rect width="1920" height="1080" fill="white"/>
</clipPath>
</defs>
</svg>
